/* XPM */
static char *dummy[]={
"32 32 681 2",
"Qt c None",
"bZ c #000000",
"gR c #010100",
".l c #010101",
"b2 c #000001",
"bi c #010101",
".x c #010102",
"ed c #020202",
".b c #010101",
".h c #020202",
"#y c #020202",
".# c #020203",
"f6 c #040403",
"ar c #040404",
"b1 c #020202",
".m c #020303",
".i c #040505",
"dP c #050505",
"b0 c #030303",
"#f c #030304",
".g c #030404",
".v c #050505",
".L c #030404",
".y c #040404",
"bD c #040505",
".w c #050607",
"#Q c #060707",
".d c #050506",
"#x c #070808",
"iM c #050504",
".j c #040506",
"hf c #080706",
"bC c #050607",
"ec c #0a0909",
"hg c #0a0908",
"dp c #080909",
"bX c #0a0b0b",
"dQ c #0d0d0d",
".k c #0a0c0d",
".0 c #0b0c0d",
"dO c #131313",
"cF c #0b0c0d",
".u c #141617",
"bY c #0e1011",
"cl c #0b0d0e",
".a c #0c0e10",
"#R c #0f1011",
".e c #101112",
".f c #101213",
"ck c #0f1113",
"c3 c #0d0e0f",
".c c #121517",
"#g c #141516",
"a. c #1d1f20",
"eb c #232221",
"cE c #1d2226",
".Z c #262c30",
"#e c #2d3132",
".1 c #1e1f21",
"aK c #303131",
".K c #33383b",
"ip c #201e1b",
".n c #24272c",
"c2 c #252c32",
"dq c #1f2021",
".t c #3c4348",
"a3 c #3c3d3e",
"do c #45494b",
"c4 c #24282b",
"he c #3e3d3a",
"#9 c #525b5d",
"hF c #353535",
"cG c #2b2f34",
".o c #42464b",
"fk c #494946",
"eC c #3b3939",
"h3 c #363636",
".p c #474c52",
"#w c #667174",
"gs c #5b5f5d",
"eB c #504e4c",
".s c #5e6b74",
".z c #52575c",
"fI c #7f827e",
"bj c #68696a",
"cH c #3e444c",
".M c #54595e",
".q c #5d6772",
"cj c #839095",
".r c #616d79",
"iL c #47433d",
".J c #8e99a0",
"dN c #909494",
"#S c #5d5e61",
"bW c #97a4a7",
"#z c #5e5f62",
"ee c #626162",
"c1 c #929da4",
"cI c #555d64",
"bB c #a6b7bd",
"aq c #a7bcc3",
"f5 c #97a2a5",
"c5 c #5a6066",
"a# c #6b7176",
"#d c #b7cdd4",
"#P c #b3cbd6",
"eZ c #7a7a7a",
"cD c #abbbc4",
".I c #93acc0",
"dr c #5a5e61",
"bh c #bcd2da",
"b3 c #7e8085",
"bE c #8d9195",
"gQ c #808891",
"dn c #afbec6",
"cm c #7f858a",
"aJ c #c7e1ea",
"dR c #797778",
"#h c #7d8084",
".2 c #6d727a",
"e0 c #636162",
"io c #686567",
"c6 c #7d8286",
"ea c #bec5c9",
".N c #6a717b",
"as c #83888d",
".Y c #c9e3f0",
"a2 c #cfeaf5",
".A c #757c89",
"ds c #7a7e81",
"cJ c #878f93",
".H c #91b0cc",
".X c #a3c5e0",
"iI c #2c2d34",
"iH c #2d2e33",
"id c #2d3038",
"iB c #2e3038",
"iA c #2e323c",
"iJ c #2f2f39",
"ii c #2f323b",
"iD c #303239",
"ih c #30333b",
"iz c #30333d",
"ij c #31313a",
"iE c #31333b",
"ie c #31343d",
"ic c #31353f",
"ig c #32353d",
"hP c #323540",
"im c #33333c",
"iG c #333439",
"iC c #33353b",
"iy c #333541",
"il c #34343e",
"ib c #343740",
"hS c #343741",
"hU c #343742",
"hQ c #343842",
"if c #353743",
"ik c #363640",
"iF c #36373c",
"hV c #363943",
"hR c #363a44",
"aO c #363f51",
"hX c #373842",
"hO c #373a43",
"hT c #373a46",
"fW c #374152",
"hZ c #383742",
"hW c #383a45",
"ix c #383b43",
"hw c #383c48",
"g5 c #383e4a",
"aP c #383f52",
"gj c #384150",
"gi c #384251",
"fV c #384452",
"iv c #393a3e",
"hy c #393c48",
"hs c #393d48",
"hu c #393e49",
"gG c #39434f",
"iK c #3a3a41",
"hr c #3a3d48",
"hv c #3a3d49",
"hx c #3a3e49",
"g6 c #3a3e4a",
"g7 c #3a3f4b",
"fu c #3a4352",
"gF c #3a4450",
"gh c #3a4452",
"fU c #3a4553",
"g8 c #3b414d",
"gH c #3b424f",
"gI c #3b4350",
"fR c #3b4453",
"gk c #3b4553",
"iu c #3c3d41",
"hq c #3c3f49",
"ht c #3c414c",
"g4 c #3c424e",
"ia c #3d3d45",
"hY c #3d3f4a",
"g0 c #3d4045",
"gd c #3d414b",
"fQ c #3d4250",
"ft c #3d4451",
"aN c #3d4556",
"gg c #3d4654",
"hn c #3e3f43",
"h0 c #3e3f49",
"g9 c #3e424d",
"gB c #3e434c",
"gC c #3e4450",
"gJ c #3e4653",
"fX c #3e4858",
"gc c #3f434b",
"fb c #3f4759",
"aR c #3f475c",
"ge c #3f4853",
"fc c #3f4859",
"gD c #3f4952",
"av c #3f4a5b",
"in c #404049",
"gY c #404145",
"hN c #404147",
"gz c #404247",
"hz c #404751",
"aQ c #40475a",
"e9 c #404957",
"fS c #404958",
"a8 c #40495c",
"gf c #404a55",
"gE c #404a56",
"aw c #404b5d",
"db c #404c62",
"cO c #404d62",
"hm c #414246",
"gA c #414449",
"gb c #41454d",
"g1 c #414550",
"g3 c #414753",
"fT c #414a59",
"aS c #414b61",
"fy c #414c5b",
"fY c #414d5d",
"bG c #414d5e",
"bo c #414d60",
"hB c #424652",
"fP c #424751",
"g2 c #424853",
"e8 c #424957",
"bq c #424a5e",
"b. c #424b61",
"fz c #424d5d",
"ax c #424d5f",
"dA c #425063",
"h9 c #434447",
"a9 c #434c5f",
"gl c #434e5e",
"it c #444549",
"hp c #44464b",
"hC c #444753",
"bp c #444c5f",
"a7 c #444f62",
"bK c #444f65",
"ho c #45464a",
"fN c #454851",
"e7 c #454956",
"b# c #454d65",
"h. c #454e5a",
"a6 c #454f62",
"b9 c #455267",
"ep c #455367",
"h8 c #464648",
"i. c #46474b",
"ga c #46484f",
"eK c #464d59",
"gK c #464f5c",
"a5 c #465064",
"aT c #465169",
"bJ c #465268",
"h7 c #474749",
"hl c #47474a",
"gX c #47484c",
"gy c #47484d",
"eJ c #474d59",
"ad c #474f62",
"bL c #474f63",
"aM c #475061",
"br c #475067",
"eL c #47515c",
"ay c #475265",
"gL c #475363",
"hL c #48494c",
"iw c #484a4e",
"gZ c #484a4f",
"fO c #484c54",
"bl c #485062",
"hA c #48515f",
"hJ c #49494b",
"fs c #494e58",
"ac c #495162",
"fx c #495260",
"#W c #495263",
"bs c #49536b",
"ae c #495466",
"bM c #495770",
"fZ c #495969",
"dB c #495e76",
"au c #4a5261",
"#X c #4a5569",
"gm c #4a5766",
"fd c #4a586a",
"fA c #4a5969",
"eI c #4b515b",
"bt c #4b566e",
"az c #4b576b",
"ba c #4b5a73",
"eu c #4b5b72",
"gW c #4c4b50",
"gS c #4c4c4e",
"hM c #4c4d51",
"e6 c #4c5058",
"#V c #4c5363",
"#D c #4c5566",
"#E c #4c576a",
"c. c #4c5c75",
"fr c #4d5157",
"eN c #4d5560",
"hb c #4d5663",
"eR c #4d5769",
"af c #4d5a6d",
"aU c #4d5a72",
"cs c #4d627b",
"is c #4e4d4e",
"gV c #4e4d50",
"i# c #4e4f53",
"fq c #4e5159",
"em c #4e575f",
"bn c #4e5a6e",
"d7 c #4e5d74",
"hK c #4f4f51",
"el c #4f5660",
"bu c #4f5b75",
"#Y c #4f5c6f",
"bv c #4f5f78",
"gx c #504f54",
"#C c #505666",
"bm c #505c6f",
"#F c #505c70",
"c# c #505e77",
"bN c #50617a",
"da c #50697e",
"gw c #515053",
"g. c #515255",
"g# c #515256",
"e5 c #51535c",
"eH c #51555b",
"dY c #515862",
"co c #515b68",
"#k c #515b6c",
"cL c #515d6a",
"d6 c #516075",
"hk c #525154",
"b5 c #525b6b",
"#l c #525e6f",
"aA c #525f73",
"aV c #52627b",
"fp c #53565b",
"#U c #535963",
"ek c #535a63",
".4 c #535f6f",
"#G c #535f77",
"h# c #53606e",
".5 c #536071",
"#Z c #536075",
"bQ c #53607a",
"f0 c #536576",
"h6 c #545355",
"fM c #54565a",
"dx c #545b65",
"dX c #545b66",
"ag c #546174",
"bb c #54657e",
"gv c #555557",
"gt c #55555a",
"#j c #555c6b",
"bP c #55617b",
"aB c #55647b",
"hj c #565557",
"gT c #565658",
"fo c #56575c",
"d. c #565e69",
"#m c #566176",
"bO c #56647d",
"eO c #566a7d",
"h5 c #575555",
"ir c #575556",
"f7 c #57555a",
"gU c #575759",
"f9 c #57575a",
"at c #575c65",
".3 c #57616f",
"eS c #576375",
"eQ c #576475",
"ah c #576477",
".6 c #576478",
"bI c #576578",
"#0 c #57677d",
"ej c #585e67",
"f# c #585e6a",
"#B c #585f69",
"bH c #586374",
"#H c #586880",
"dI c #58697f",
"cr c #586b7f",
"aC c #586b83",
"fJ c #59585b",
"e4 c #595a5f",
"h1 c #595c66",
"eo c #59636e",
"fa c #596676",
"b7 c #596778",
"#n c #596780",
"ai c #596a80",
"hi c #5a595a",
"cd c #5a677f",
"#1 c #5a6d84",
"eG c #5b5e63",
"ei c #5b6066",
"gn c #5b6b7b",
"hI c #5c5b5c",
"ab c #5c606a",
"gq c #5c6879",
".P c #5c687a",
".Q c #5c697e",
"et c #5c6c81",
".7 c #5c6c85",
"cu c #5c7189",
"gu c #5d5c5e",
"e3 c #5d5c62",
".O c #5d6776",
"gM c #5d6c7b",
"#o c #5d6d87",
"aW c #5d6e86",
"fB c #5d7181",
"d5 c #5d7185",
"ev c #5d7289",
"fL c #5e5e60",
"eh c #5e6265",
"cy c #5e6b81",
"cc c #5e6d85",
"hh c #5f5c5b",
"hH c #5f5c5d",
"dW c #5f6670",
"eF c #606366",
"dV c #60656e",
"#i c #606670",
"dw c #606b74",
"dj c #606f81",
"aD c #60758e",
"fl c #616163",
"dU c #61666b",
"hc c #616e7c",
"b6 c #616e7f",
"ha c #616f7d",
"bw c #617189",
"#I c #61748c",
"bk c #626975",
"c9 c #626b73",
"gO c #626e7f",
"bR c #627089",
"aj c #62738c",
".8 c #62768f",
"#2 c #627892",
"ca c #627994",
"hE c #636972",
"ce c #637088",
"cW c #637185",
"dH c #63768c",
"fm c #646465",
"cp c #646d79",
".B c #647183",
"d0 c #64747e",
"#p c #647a94",
"f8 c #656366",
"e1 c #656466",
"fn c #656566",
"dy c #65707c",
"gP c #657585",
"bF c #666f7c",
".R c #66788f",
"bc c #667891",
"cX c #66798d",
"cb c #667c93",
".S c #667c96",
"fK c #676667",
"en c #676d71",
"cz c #67788e",
"fe c #677b8c",
"ak c #677d98",
"d1 c #67869f",
"dv c #687079",
"cP c #6890ab",
"f. c #696a71",
"eg c #696b6e",
".C c #69768a",
"bx c #697b94",
"dJ c #697c90",
"fC c #697f8d",
"hG c #6a6160",
"#T c #6a7075",
"cn c #6a727c",
"d8 c #6a7e92",
"#J c #6a819c",
".9 c #6a819e",
"eM c #6b7075",
"b4 c #6b727d",
"hd c #6b747e",
"#q c #6b85a0",
".T c #6c85a3",
"aa c #6d7074",
"dT c #6d7174",
".D c #6d7e97",
"es c #6d8293",
"e2 c #6e6e70",
"#3 c #6e87a1",
"dZ c #6f7980",
"dk c #6f8193",
"eT c #6f8293",
"du c #707479",
"cK c #707a83",
"dz c #70828c",
"cx c #70839a",
"eD c #717171",
"h2 c #71777e",
".U c #718fae",
"iq c #726260",
"cM c #727a84",
"aX c #72859d",
"b8 c #728ca0",
"#r c #728dad",
"eE c #737373",
"a4 c #737580",
"c8 c #737d85",
"d# c #73808a",
"aE c #738ba3",
"dt c #74797d",
"fw c #747e84",
"eP c #748b9b",
"h4 c #756661",
"hD c #75808b",
"#. c #758eae",
"cN c #7592a4",
"dS c #767678",
"#A c #76787c",
"f4 c #768a9b",
"cA c #768aa0",
".F c #7690af",
".V c #7697b9",
"go c #778b9a",
"bd c #778ca4",
"ew c #778ea1",
"cv c #7795ab",
"fv c #787e84",
"di c #78889a",
".E c #788da7",
"al c #7891aa",
"cS c #7892a7",
"#K c #7892ae",
"## c #7898b7",
"dG c #798d9e",
"bS c #7a8fa8",
"ef c #7b7a7b",
"c7 c #7d8489",
"cq c #7d93a0",
"eU c #7d97a7",
"#4 c #7d99b3",
"#s c #7d9cbb",
"ct c #7da9c6",
"cV c #7e8da2",
"cY c #7e93a8",
"#L c #7e9db9",
".G c #7e9dba",
"cg c #7f96ad",
"cf c #7f97af",
"cw c #809cb0",
"be c #8199b0",
"#a c #81a4c2",
"#M c #81a5c2",
"fG c #8294a1",
"gN c #8296a4",
"ch c #839bac",
"f1 c #849aa8",
"cR c #849caf",
"aY c #859ab1",
"am c #85a4bb",
"aF c #86a1b8",
"#5 c #86a7c0",
"ex c #879fae",
".W c #87abca",
"#t c #87acca",
"fi c #889ca9",
"fF c #889fb1",
"eW c #89a1ae",
"fD c #8aa2af",
"cB c #8aa2b3",
"gr c #8b9dab",
"by c #8ba1b9",
"dK c #8ba4b4",
"dh c #8ca4b4",
"ff c #8ca5b2",
"#b c #8cb0ce",
"dl c #8da8bb",
"cU c #8dabc0",
"eq c #8db1c5",
"dc c #8dbfd5",
"bT c #8ea9be",
"aZ c #8ea9bf",
"an c #8fb1ca",
"fh c #90a7b4",
"aL c #91969d",
"ey c #91a9b7",
"aG c #91b0c5",
"d9 c #92abbd",
"fE c #93abb8",
"#6 c #93b6cf",
"#N c #93b7d4",
"e. c #95afc0",
"#u c #96bbd9",
"bU c #97aebe",
"f2 c #97b4c2",
"fH c #98abb8",
"gp c #99afbd",
"bf c #99b6cb",
"ez c #9baebc",
"cT c #9dbacb",
"a0 c #9ebdd1",
"eV c #9fbbc9",
"aH c #9fbfd4",
"dL c #a0bccc",
"#7 c #a0c5dd",
"cZ c #a1bdcd",
"d4 c #a2b6c3",
"f3 c #a2bac6",
"ao c #a2c3da",
"eX c #a5b9c4",
"er c #a5bec9",
"fg c #a7bfcb",
"bg c #a7c6db",
"dg c #a8c7d2",
"dm c #a9c4d2",
"bA c #aac4d7",
"df c #adc7d4",
"#c c #adcfe7",
"e# c #afc5d1",
"#O c #afd1e8",
"c0 c #b0c6d2",
"bV c #b3cedc",
"dM c #b4c4ce",
"a1 c #b4d4e7",
"bz c #b6cad8",
"ci c #b6d2de",
"fj c #b7c8d0",
"aI c #b7d7ec",
"ap c #b9dbee",
"dF c #bacad3",
"cC c #bed8e3",
"dC c #c1e6f2",
"eY c #c2d4dc",
"#v c #c2e2f5",
"#8 c #c2e3f5",
"eA c #c6d4d9",
"cQ c #cdf3fa",
"d3 c #d1e6eb",
"de c #d3e4ea",
"d2 c #d9f3f8",
"dE c #ebf5f6",
"dd c #f0fdfe",
"dD c #f8fcfc",
"QtQtQtQtQt.#.aQt.b.c.d.e.f.gQtQtQtQtQt.hQtQtQtQtQtQtQt.iQtQtQtQt",
"QtQtQtQtQtQtQtQtQtQt.j.k.lQt.m.n.o.p.q.r.s.t.uQt.vQt.wQt.xQtQtQt",
"QtQtQtQtQtQtQtQtQtQtQtQt.y.l.z.A.B.C.D.E.F.G.H.I.J.KQtQtQtQtQtQt",
"QtQtQtQtQtQtQtQt.LQtQtQtQt.M.N.O.P.Q.R.S.T.U.V.W.X.Y.ZQtQtQtQtQt",
"QtQtQtQtQtQtQtQt.g.0QtQt.1.2.3.4.5.6.7.8.9#.###a#b#c#d#eQtQtQtQt",
"QtQtQtQtQtQtQtQtQt#fQt#g#h#i#j#k#l#m#n#o#p#q#r#s#t#u#v#w#xQtQtQt",
"QtQtQtQtQtQtQtQtQtQt#y#z#A#B#C#D#E#F#G#H#I#J#K#L#M#N#O#P#QQtQtQt",
"QtQtQtQtQtQtQtQtQtQt#R#S#T#U#V#W#X#Y#Z#0#1#2#3#4#5#6#7#8#9QtQtQt",
"QtQtQtQtQtQtQtQtQtQta.a#aaabacadaeafagahaiajakalamanaoapaqQtQtQt",
"QtQtQtQtQtQtQtQtQtQtarasatauavawaxayazaAaBaCaDaEaFaGaHaIaJ.lQtQt",
"QtQtQtQtQtQtQtQtQtQtaKaLaMaNaOaPaQaRaSaTaUaVaWaXaYaZa0a1a2#xQtQt",
"QtQtQtQtQtQtQtQtQtQta3a4a5a6a7a8a9aRb.b#aTbabbbcbdbebfbgbhQtQtQt",
"QtQtbiQtQtQtQtQtQtQtbjbkblbmbnbobpbqbrbsbtbubvbwbxbybzbAbBQtQtQt",
"QtQt.lQtQtQtQtbibCbDbEbFbGbHbIbJbKbLbMbNbObPbQbRbSbTbUbVbWQtQtQt",
"QtQtQtbXbYbZb0b1Qtb2b3b4b5b6b7b8b9c.c#cacbcccdcecfcgchcicj.lQtQt",
"QtQt#yck.bQtQtQtbZclcmcncocpcqcrcsctcucvcwcxcycyczcAcBcCcDcEQtQt",
"QtQtQtQtQtQtcFcGcHcIcJcKcLcMcNcOcPcQcRcScTcUcVcWcXcYcZc0c1c2QtQt",
"QtQtQtQtQtc3c4c5c6c7c8c9d.d#dadbdcdddedfdgdhdidjdkdldmdndo.mQtQt",
"QtQtdpQtdqdrdsdtdudvdwdxdydzdAdBdCdDdEdFdGdHdIdJdKdLdMdNdOQtQtQt",
"QtQtdPdQdRdSdTdUdVdWdXdYdZd0a8d1d2d3d4d5d6d7d8d9e.e#eaebQtecQtQt",
"QtQtedeeefegeheiejekelemeneoepeqereseteuevewexeyezeAeBQtQtQtQtQt",
"QtQteCeDeEeFeGeHeIeJeKeLeMeNeOePeQeReSeTeUeVeWeXeYeZecQtQtQtQtQt",
"QtQte0e1e2e3e4e5e6e7e8e9f.f#fafbfcbGfdfefffgfhfifjfkQtQtQtQtQtQt",
"QtQtflfmfnfofpfqfrfsftfufvfwfxfyfzfAfBfCfDfEfFfGfHfIQtQtQtQtQtQt",
"QtQtfJfKfLfofMfNfOfPfQfRfSfTfUfVfWfXfYfZf0f1f2f3f4f5f6QtQtQtQtQt",
"QtQtf7f8f9g.g#gagbgcgdgegfggghfUgigjgkglgmgngogpgqgrgsQtQtQtQtQt",
"QtQtgtgugvgwgxgygzgAgBgCgDgEgFgFgGgHgIgJgKgLgMgNgOgPgQf6gRQtQtQt",
"QtQtgSgTgUgVgWgXgYgZg0g1g2g3g4g4g5g6g7g8g9h.h#hahbhchdhehfhgQtQt",
"QtQthhhihjhkhlhmhnhohphqhrhshthug5hvhwhxhyhzhAhBhChDhEhFbZ.hQtQt",
"QtQthGhHhIhJhKhLhohMhNhOhPhQhRhSg7hThUhVhWhXhYhZh0h1h2h3QtQtQtQt",
"QtQth4h5h6h7h8h9i.i#iaibhPicidieifigihiiijikilimikinioipQtQtQtQt",
"QtQtiqirish7itiuiviwixiyiyiziAiBiiiCiDiEiFiGiHiIiJiKiLiMQtQtQtQt"};
