/* XPM */
static char *dummy[]={
"32 32 609 2",
"Qt c None",
"cr c #000000",
".# c #000101",
".k c #010101",
"bx c #000000",
".a c #010101",
"#v c #020202",
"#e c #020202",
"cP c #010101",
".c c #020202",
"fX c #030403",
"#8 c #040404",
"#w c #020202",
".b c #040404",
"fA c #020202",
"#P c #060707",
".Z c #0c0c0c",
"d# c #09090a",
"hm c #050505",
"bR c #080809",
".w c #101011",
"gj c #060607",
".j c #111314",
"dv c #131313",
"b9 c #090909",
"hn c #070707",
".K c #161718",
"hl c #100f0f",
"gF c #101010",
".0 c #141516",
"cs c #141415",
"dQ c #242526",
"fc c #111112",
".d c #232627",
".L c #1e1f20",
"hk c #1c1b1b",
"ap c #303131",
"gG c #161617",
"eT c #181819",
".i c #363e42",
"ew c #3c3e3f",
"cO c #3d4143",
"#O c #444c4e",
"ex c #1c1c1d",
"aH c #3c3d3e",
"g2 c #171819",
".l c #2d2f31",
"dR c #2a2a2b",
"gi c #3b3b3b",
"ho c #161618",
"#d c #4d5456",
"gE c #343536",
"ed c #2a2a2b",
"eS c #585d5f",
".e c #434a4f",
"g1 c #353637",
"ec c #545859",
"fz c #5a5e5f",
".v c #6b7478",
".x c #45494c",
".h c #59666f",
"bQ c #748084",
"cQ c #3f4042",
"fY c #303032",
"c. c #474b4f",
"ct c #4b4d50",
"aZ c #66686a",
"hE c #3e3e3e",
"d. c #7f8587",
".f c #58646e",
".g c #5f6d77",
"hp c #26272a",
"bw c #929ea2",
"cq c #8a959a",
"#x c #5c5f61",
"da c #545557",
"#f c #5d5f62",
"dw c #5f6061",
"be c #9babb1",
"#7 c #9cb1b8",
"fb c #88949a",
"b8 c #9aa6ab",
".Y c #a3b4ba",
"#Q c #666a6f",
"#u c #a8c0c9",
".m c #5c6269",
"bf c #818487",
".u c #8ca8ba",
".J c #b5c9d2",
"aY c #b8cdd5",
"gk c #4b4b4e",
"by c #7e8185",
"dP c #bbc9cf",
"du c #b5bfc2",
"fW c #7f8891",
"cN c #adbdc5",
"fB c #545457",
"ao c #c2dbe5",
"bS c #80858a",
"g3 c #414245",
".1 c #7d8084",
"cu c #7d8085",
"cR c #77797d",
"gH c #46474a",
"hj c #646568",
".M c #6d7279",
".y c #69707a",
"#9 c #83888c",
"aG c #cee8f3",
"hq c #48494d",
".n c #637181",
"gZ c #585d66",
"cJ c #606f81",
"cl c #627285",
"fd c #636366",
"gh c #6b747e",
"g0 c #71777e",
"aI c #71777f",
"db c #747679",
"eI c #757c85",
"gC c #75808b",
"cI c #778999",
"eH c #797e84",
"ck c #7d90a1",
"c# c #888e93",
"fy c #8a9dab",
".t c #90b1cb",
"aq c #91969b",
"bu c #97aebe",
"dO c #9bafbc",
"dm c #a2b6c3",
".I c #a3c6df",
"cF c #adc6d4",
"dt c #afc5d2",
"c9 c #b2c5cf",
"bc c #b5cbd8",
"ev c #b7c9d2",
"c3 c #b9cad3",
"#c c #c2e2f3",
"eb c #c5d6df",
"dl c #d1e5ec",
"cE c #d4e3ea",
"c2 c #eaf5f7",
"c1 c #f8fdfd",
"hB c #2b2d35",
"hA c #2d2e35",
"h. c #2e3038",
"hC c #2e3039",
"hu c #2f313a",
"hc c #2f313b",
"hw c #303139",
"hd c #30323a",
"hb c #30323b",
"ht c #30333c",
"hx c #31333c",
"hz c #32333a",
"hg c #32333c",
"h# c #32343d",
"g9 c #32343e",
"gO c #32353f",
"hv c #33343c",
"hf c #33353e",
"g8 c #333540",
"hs c #333641",
"g7 c #343641",
"gR c #343741",
"gT c #343742",
"hy c #35363d",
"hh c #35363f",
"he c #353740",
"gP c #353742",
"ha c #353842",
"gX c #363842",
"gV c #363942",
"gN c #363944",
"gQ c #373944",
"gS c #373a45",
"at c #374050",
"gU c #383a44",
"gw c #383c47",
"f9 c #383d49",
"fq c #384150",
"au c #384151",
"hD c #393b41",
"hr c #393b43",
"gx c #393c47",
"gr c #393d48",
"gu c #393e4a",
"fp c #394251",
"eG c #394252",
"gt c #3a3e48",
"gv c #3a3e49",
"g# c #3a3f4a",
"fM c #3a424f",
"fn c #3a4352",
"fo c #3a4353",
"gq c #3b3f49",
"g. c #3b3f4a",
"ga c #3b414c",
"fL c #3b4350",
"e2 c #3b4453",
"e5 c #3b4454",
"g6 c #3c3e45",
"gW c #3c404a",
"gs c #3c414b",
"f8 c #3c424d",
"fN c #3c424f",
"fO c #3c4350",
"fr c #3c4453",
"gY c #3d4049",
"fj c #3d414c",
"e1 c #3d434f",
"eF c #3d4451",
"fm c #3d4554",
"as c #3d4656",
"gn c #3e3f44",
"f4 c #3e3f45",
"fI c #3e424c",
"gb c #3e424d",
"fJ c #3e444f",
"fP c #3e4653",
"e6 c #3e4858",
"ep c #3e4859",
"hi c #3f4149",
"eo c #3f4858",
"av c #3f485a",
"aw c #3f485b",
"aa c #3f495b",
"di c #3f495c",
"f2 c #404146",
"gM c #404147",
"fi c #40434c",
"gy c #404651",
"fK c #404753",
"fk c #404854",
"el c #404957",
"e3 c #404958",
"aM c #404a5c",
"fG c #414247",
"fh c #41444d",
"f5 c #414650",
"gA c #414752",
"f7 c #414753",
"f6 c #414853",
"fl c #414956",
"ek c #414a56",
"e4 c #414a59",
"eK c #414b5c",
"ab c #414b5d",
"a5 c #414b5e",
"bh c #414c5e",
"ax c #414c60",
"cB c #414c61",
"cd c #414d62",
"fH c #424348",
"e0 c #424751",
"e7 c #424c5d",
"aO c #424c60",
"ac c #424d5f",
"a3 c #424d60",
"gB c #434852",
"a4 c #434c5f",
"aN c #434d5f",
"fs c #434e5e",
"cY c #434f63",
"gp c #44464b",
"eY c #444851",
"ej c #444a55",
"aP c #444f64",
"bl c #445065",
"go c #45464a",
"gK c #45464b",
"fg c #454850",
"gc c #454d5a",
"aL c #455061",
"aK c #455062",
"aQ c #455269",
"gm c #46474b",
"g4 c #46474c",
"dZ c #464d59",
"fQ c #464e5c",
"#U c #464f62",
"a6 c #465167",
"bE c #465267",
"ay c #465268",
"fF c #47484c",
"eZ c #474b54",
"dY c #474e59",
"ar c #475160",
"a1 c #475162",
"aJ c #475163",
"fR c #475263",
"ad c #475265",
"bk c #475367",
"gJ c #48494d",
"d0 c #484f5c",
"gz c #48515f",
"#B c #485263",
"#V c #485466",
"a7 c #48546b",
"f3 c #494a4e",
"eE c #494e58",
"#T c #495162",
"eJ c #495260",
"bm c #49576f",
"a# c #4a5361",
"#C c #4a5668",
"a8 c #4a576d",
"dX c #4b515b",
"#j c #4b5567",
"ft c #4b5667",
"#k c #4b5769",
"ae c #4b576a",
"cZ c #4b5d75",
"gL c #4c4c50",
"f1 c #4c4d50",
"eD c #4c5058",
"ei c #4c5059",
"eC c #4c515a",
"#A c #4c5462",
"d6 c #4c5869",
"az c #4c5a72",
"aR c #4c5a73",
"f0 c #4d4d51",
"gI c #4d4e51",
"d2 c #4d5560",
"gf c #4d5563",
"bF c #4d5d74",
"g5 c #4e4f53",
"#W c #4e5a6c",
"dp c #4e5c74",
"a9 c #4e5d75",
"fE c #4f5053",
"eh c #4f545c",
"dD c #4f555f",
"dC c #4f5560",
"#i c #4f5765",
"a2 c #4f5b6d",
"bY c #4f627a",
"fD c #505154",
".4 c #505c6c",
"#D c #505c6e",
"#l c #505c6f",
"bG c #505f77",
"b. c #506078",
"bn c #50617a",
"gl c #515155",
"ff c #515255",
"dW c #51555c",
"bU c #515a68",
"do c #516075",
"df c #525862",
"bA c #525c6b",
".O c #525e70",
"gd c #525f6f",
"af c #525f73",
"#m c #526176",
"bq c #526179",
"#z c #535963",
".P c #536071",
"#E c #536074",
"bp c #53627b",
"aA c #53637b",
"cA c #53677f",
"fC c #545558",
"eX c #54555a",
"eB c #54565a",
"cV c #545a65",
"de c #545b66",
"#X c #546173",
".3 c #555d6a",
".5 c #556275",
"e8 c #556476",
"ag c #55647c",
"aS c #55657d",
"fZ c #56565a",
"eW c #56575b",
"eA c #56575c",
"cy c #565d69",
"d7 c #566375",
".Q c #566478",
"bo c #56657d",
"fe c #57575a",
"a. c #575c65",
"dB c #575e68",
".N c #57606f",
"bi c #576374",
"d5 c #576475",
"#Y c #576477",
"bj c #576577",
"#F c #57677d",
"d3 c #57687d",
"#h c #585f69",
"bK c #58687f",
".6 c #586880",
"dF c #59626f",
"en c #596676",
"bX c #59697f",
"#Z c #596a81",
"ah c #596b83",
"eg c #5a5b5f",
"bC c #5a6778",
".A c #5b6879",
"fx c #5b687a",
".B c #5b697d",
"fu c #5b6a7b",
"dJ c #5b6c82",
"#G c #5b6d84",
"dV c #5c5e62",
"dA c #5c6066",
"#S c #5c6169",
".R c #5c6d85",
"eV c #5d5e61",
".z c #5d6776",
"fS c #5d6b7c",
"b4 c #5d6c81",
"bJ c #5d6e85",
".7 c #5d6e86",
"b0 c #5d718a",
"dK c #5e7189",
"dz c #5f6165",
"dd c #5f656e",
".2 c #5f6670",
"eL c #5f6f81",
"dn c #5f7086",
"ge c #606e7e",
"bB c #606e7f",
"b# c #607189",
"dU c #616266",
"gg c #616e7d",
"fU c #616f7f",
"br c #617189",
"#n c #61748c",
"ai c #61758d",
"ey c #626366",
"dc c #62656b",
"a0 c #626974",
"bL c #627288",
"#0 c #62738b",
"bH c #627a93",
"gD c #636972",
"cx c #636a74",
"c5 c #63758c",
".S c #63768f",
"#H c #637891",
"ez c #646468",
"ee c #646567",
"bV c #646d78",
".8 c #647a93",
"eU c #656669",
"cW c #656f7c",
"dh c #657280",
"fV c #657586",
"bg c #666f7c",
"cm c #66788e",
".C c #66788f",
"aT c #667990",
".D c #667d96",
"dE c #676b71",
".o c #67778a",
"bI c #677b93",
"#1 c #677e97",
"cU c #686f79",
"dy c #696b6e",
"em c #696b70",
"bT c #69727d",
"eq c #697a8c",
"c6 c #697c90",
"ba c #697c94",
"dj c #69849f",
"bz c #6a727d",
"dq c #6a7d92",
"#o c #6a829b",
".T c #6a829d",
"#y c #6b6f75",
"eM c #6b7d8e",
".p c #6b7f97",
"d1 c #6c6f75",
".9 c #6c85a0",
".E c #6c87a2",
"ce c #6c8faa",
"ef c #6d6e71",
"#I c #6d87a2",
"#R c #6e7073",
"cK c #6e8193",
"dI c #6e8194",
"dS c #6f7073",
"dg c #6f7881",
"d8 c #6f8293",
"b3 c #6f839a",
"cT c #707478",
"ca c #707983",
"dT c #717275",
"cb c #727b84",
"cX c #72808d",
"aB c #72879d",
"#. c #728fad",
".F c #7290ad",
"cw c #737c86",
"cz c #737f8a",
"bD c #738aa0",
"aj c #738aa2",
".U c #7490ad",
"cS c #75787c",
"d4 c #758a9c",
".r c #7592ae",
"#g c #76787b",
"fa c #768a9b",
"b5 c #768ba0",
"aU c #768da3",
"fv c #778a9b",
"cc c #778fa5",
".q c #778fa7",
"#2 c #7791aa",
"#p c #7793ad",
".G c #7798b7",
"dL c #788ea1",
"ch c #7891a7",
"dx c #797a7d",
"c4 c #798d9e",
"b1 c #7993ac",
"bs c #7a91a8",
"## c #7c9dbb",
"cn c #7d94a8",
"#J c #7d99b3",
"cv c #7e838a",
"bW c #7e91a1",
"#q c #7e9db9",
".s c #7e9eba",
"d9 c #7f95a8",
"bN c #7f97ac",
"bM c #7f98ae",
"aV c #8099af",
"bZ c #80a9c4",
"b2 c #819bb1",
".V c #81a4c2",
"#r c #81a5c2",
"eQ c #8293a2",
"fT c #8296a4",
"bO c #839aac",
"e9 c #8499a9",
"aC c #849cb0",
"cg c #859baf",
"#3 c #85a3bc",
"ak c #86a2b7",
"dM c #879eaf",
"#K c #87a7c0",
".H c #87acc9",
"#a c #87acca",
"eu c #889ba9",
"eP c #889fb0",
"e# c #8aa0af",
"b6 c #8aa2b4",
"bb c #8aa3b8",
"eN c #8ba0af",
"c7 c #8ba4b5",
"er c #8ca3b2",
".W c #8cb1ce",
"cH c #8da4b4",
"aD c #8daabf",
"cj c #8daac0",
"cL c #8ea8bb",
"bt c #8ea9be",
"dG c #8faec6",
"#4 c #8fb1ca",
"et c #91a6b4",
"dN c #91a8b7",
"al c #91afc5",
"cC c #91bed5",
"dr c #92abbd",
"eO c #93aab9",
"#L c #93b6d0",
"#s c #93b8d4",
"ds c #95afc0",
"#b c #97bcd7",
"eR c #98abb9",
"f. c #98b2c3",
"aW c #98b6ca",
"fw c #99afbd",
"ci c #9ebacb",
"aE c #9ebdd1",
"am c #9fbfd4",
"e. c #a0baca",
"c8 c #a1bbcc",
"co c #a1bdcd",
"#M c #a1c4dd",
"f# c #a2b9c7",
"#5 c #a2c3db",
"ea c #a4b9c6",
"dH c #a5bcca",
"es c #a7becb",
"aX c #a7c6db",
"bd c #a9c6d7",
"cM c #aac3d2",
"cG c #aac4d3",
".X c #aed0e6",
"#t c #afd1e7",
"cp c #b0c6d2",
"bv c #b3cedc",
"aF c #b4d4e7",
"an c #b6d8ec",
"bP c #b7d1de",
"#6 c #b9daee",
"b7 c #bed7e3",
"#N c #c2e3f5",
"c0 c #c3e4f2",
"cf c #cef1fb",
"dk c #daf1f9",
"cD c #f0fdfe",
"QtQtQtQtQtQtQtQtQtQtQtQt.#.aQtQtQtQtQtQtQtQtQtQtQtQtQt.bQtQtQtQt",
"QtQtQtQtQtQtQtQtQtQtQtQtQtQtQt.c.d.e.f.g.h.i.jQt.kQtQtQtQtQtQtQt",
"QtQtQtQtQtQtQtQtQtQtQtQtQtQt.l.m.n.o.p.q.r.s.t.u.v.wQtQtQtQtQtQt",
"QtQtQtQtQtQtQtQtQtQtQtQtQt.x.y.z.A.B.C.D.E.F.G.H.I.J.KQtQtQtQtQt",
"QtQtQtQtQtQtQtQtQtQtQtQt.L.M.N.O.P.Q.R.S.T.U.G.V.W.X.Y.ZQtQtQtQt",
"QtQtQtQtQtQtQtQtQtQtQt.0.1.2.3.4.O.5.6.7.8.9#.###a#b#c#d#eQtQtQt",
"QtQtQtQtQtQtQtQtQtQtQt#f#g#h#i#j#k#l#m.6#n#o#p#q#r#s#t#u#vQtQtQt",
"QtQtQtQtQtQtQtQtQtQt#w#x#y#z#A#B#C#D#E#F#G#H#I#J#K#L#M#N#OQtQtQt",
"QtQtQtQtQtQtQtQtQtQt#P#Q#R#S#T#U#V#W#X#Y#Z#0#1#2#3#4#5#6#7QtQtQt",
"QtQtQtQtQtQtQtQtQtQt#8#9a.a#aaabacadaeafagahaiajakalamanaoQtQtQt",
"QtQtQtQtQtQtQtQtQtQtapaqarasatauavawaxayazaA.7aBaCaDaEaFaG#8QtQt",
"QtQtQtQtQtQtQtQtQtQtaHaIaJaKaLaMaNawaOaPaQaRaSaTaUaVaWaXaYQtQtQt",
"QtQtQtQtQtQtQtQtQtQtaZa0a1#Da2a3a4a5a6a7a8a9b.b#babbbcbdbeQtQtQt",
"QtQtQtQtQtQtQtQtQtQtbfbgbhbibjbkbl#UbmbnbobpbqbrbsbtbubvbwQtQtQt",
"QtQtQtQtQtQtQtQtQtbxbybzbAbBbCbDbEbFbGbHbIbJbKbLbMbNbObPbQQtQtQt",
"QtQtQtQtQtQtQtQtQtbRbSbTbUbVbWbXbYbZb0b1b2b3b4b4.Cb5b6b7b8QtQtQt",
"QtQtQtQtQtQtQtQtb9c.c#cabAcbcccdcecfcgchcicjckclcmcncocpcqQtQtQt",
"QtQtQtQtQtcrcsctcucvcwcxcyczcAcBcCcDcEcFcGcHcIcJcKcLcMcNcOQtQtQt",
"QtQtQtQtcPcQcRcScTcUa0cVcWcXcYcZc0c1c2c3c4c5.6c6c7c8c9d.QtQtQtQt",
"QtQtQtd#dadb#Rdcdd.2dedfdgdhdidjdkdldmdndodpdqdrdsdtdudvQtQtQtQt",
"QtQtQtdwdxdydzdAdB#zdCdDdEdFbEdGdHdIdJazdKdLdMdNdOdPdQQtQtQtQtQt",
"QtQtdRdSdTdUdVdWdXdYdZd0d1d2d3d4d5d6d7d8d9e.e#eaebecQtQtQtQtQtQt",
"QtQtedeeefdVegeheiejekelem#heneoepbhaeeqereseteuevewQtQtQtQtQtQt",
"QtQtexeyezeAeBeCeDeEeFeGeHeIeJeKbh#keLeMeNeOePeQeReSQtQtQtQtQtQt",
"QtQteTeUeVeWeXeYeZe0e1e2e3e4e5eGaue6e7#ke8e9f.f#fafb#8QtQtQtQtQt",
"QtQtfcfdfefffffgfhfifjfkflfmfnfofpfqfrfsftfufvfwfxfyfzQtQtQtQtQt",
"QtQtfAfBfCfDfEfFfGfHfIfJfKflfLfLfMfNfOfPfQfRfSfTfUfVfWfXQtQtQtQt",
"QtQtQtfYfZf0f1fFf2f3f4f5f6f7f8f8f9g.g#gagbgcgdgegfggghgiQtQtQtQt",
"QtQtbxgjgkglgmfGgngogpgqgrgrgsgtgugvgwgvgxgygzgAgBgCgDgEQtQtQtQt",
"QtQtgFQtgGgHgIgJgKgLgMgNgOgPgQgRg.gSgTgNgUgVgWgXgYgZg0g1QtQtQtQt",
"QtQtcrQtQtg2g3fHg4g5g6g7g8g9h.h#hah#hbhchdhehfhghhhihjhkQtQtQtQt",
"QtQthlQtcrhmhnhohphqhrhsg8hthch.huhvhwhxhyhzhAhBhChDhE#wQtQtQtQt"};
